<?xml version="1.0" standalone="no" ?>
<!DOCTYPE svg PUBLIC "-//W3C//DTD SVG 20010904//EN"
          "http://www.w3.org/TR/2001/REC-SVG-20010904/DTD/svg10.dtd">
<svg version="1.0" xmlns="http://www.w3.org/2000/svg"
     width="150.000000pt" height="151.000000pt" viewBox="0 0 150.000000 151.000000"
     preserveAspectRatio="xMidYMid meet">
    <g transform="translate(0.000000,151.000000) scale(0.100000,-0.100000)"
       fill="#12b4b1" stroke="none">
        <path d="M342 1339 c-2 -95 -8 -184 -14 -198 -22 -57 -49 -265 -55 -424 l-6
-168 -31 6 c-17 4 -41 9 -54 12 -17 4 -38 -11 -102 -73 -44 -42 -80 -82 -80
-88 0 -6 37 27 83 72 50 50 89 81 98 78 8 -3 33 -10 57 -16 23 -6 42 -16 42
-21 0 -6 -53 -69 -117 -141 -65 -71 -129 -143 -142 -161 -28 -38 85 76 182
182 63 70 77 75 68 27 -1 -5 3 -32 8 -60 6 -28 12 -73 13 -99 3 -72 18 -87 88
-87 66 0 68 -4 61 -87 l-3 -43 -147 0 c-167 -1 -259 -8 -281 -22 -10 -6 -3 -8
25 -4 22 3 127 6 233 6 l192 2 0 84 0 84 -69 0 c-82 0 -75 -14 -92 180 -22
255 3 633 51 767 7 18 10 76 8 141 -2 61 0 108 5 105 4 -2 7 23 7 56 0 43 -4
61 -13 61 -9 0 -13 -41 -15 -171z" />
        <path d="M1063 1370 l-52 -57 -82 41 c-81 40 -84 41 -188 40 -115 0 -181 -19
-249 -71 l-34 -25 -44 43 c-55 54 -59 34 -5 -24 37 -39 42 -41 62 -28 182 111
325 120 487 30 l52 -29 40 40 c21 22 41 40 42 40 8 0 7 -130 -1 -130 -5 0 -6
-12 -1 -27 21 -67 40 -152 45 -203 3 -30 8 -75 10 -100 3 -25 9 -112 14 -195
9 -148 9 -174 -4 -387 l-7 -108 -134 0 c-83 0 -134 -4 -134 -10 0 -6 -52 -10
-135 -10 -83 0 -135 4 -135 10 0 13 -127 13 -135 0 -4 -6 20 -10 64 -10 l70 0
3 -81 3 -80 133 -2 132 -2 0 83 0 82 144 0 144 0 7 106 c16 233 -12 770 -42
817 -5 7 -10 77 -13 158 l-5 145 -52 -56z m-203 -1254 l0 -64 -115 -1 -115 -2
0 66 0 65 115 0 115 0 0 -64z" />
        <path d="M518 1190 c-96 -29 -144 -130 -102 -213 65 -126 226 -120 280 9 19
45 18 70 -7 120 -31 66 -108 103 -171 84z m108 -39 c32 -20 64 -74 64 -110 0
-73 -62 -131 -141 -131 -130 0 -177 172 -66 240 41 25 103 25 143 1z" />
        <path d="M515 1030 c-4 -6 -1 -17 5 -26 15 -18 42 0 33 22 -6 16 -29 19 -38 4z" />
        <path d="M876 1185 c-66 -23 -107 -76 -111 -145 -2 -26 25 -84 53 -113 91 -95
252 -22 252 116 0 99 -102 174 -194 142z m135 -54 c35 -35 39 -44 39 -91 0
-47 -4 -56 -39 -91 -34 -34 -44 -39 -86 -39 -85 0 -135 50 -135 135 0 42 5 52
39 86 35 35 44 39 91 39 47 0 56 -4 91 -39z" />
        <path d="M917 1033 c-14 -13 -6 -33 13 -33 13 0 20 7 20 20 0 19 -20 27 -33
13z" />
        <path d="M671 898 c1 -34 53 -173 64 -172 12 0 76 174 69 186 -3 4 -34 8 -70
8 -60 0 -64 -1 -63 -22z m97 -80 l-31 -93 -29 85 c-15 46 -28 88 -28 92 0 4
27 8 59 8 l60 0 -31 -92z" />
        <path d="M368 634 l-57 -46 87 -73 c48 -40 88 -72 89 -71 1 1 -11 47 -27 101
-15 55 -30 108 -32 117 -2 15 -13 9 -60 -28z m91 -126 l9 -37 -69 57 -69 57
43 37 42 37 18 -57 c10 -31 22 -74 26 -94z" />
        <path d="M1022 571 c-18 -60 -35 -117 -39 -127 -4 -10 24 9 62 43 39 34 81 71
95 81 14 11 23 22 20 24 -3 2 -28 22 -56 45 l-51 42 -31 -108z m87 47 l34 -31
-59 -53 c-63 -57 -79 -65 -70 -36 3 9 13 47 22 85 9 37 22 67 28 67 6 0 26
-15 45 -32z" />
        <path d="M1009 183 c-1 -5 -1 -12 0 -17 1 -6 3 -27 3 -48 0 -21 4 -41 9 -44 5
-3 9 -17 9 -31 l0 -26 -21 27 -22 27 -17 -26 -18 -27 -16 23 -16 24 -25 -28
c-28 -30 -23 -37 8 -10 18 17 19 17 28 0 12 -21 23 -22 44 -1 14 14 18 15 33
1 19 -17 42 -12 42 9 0 8 8 15 18 15 30 3 55 7 157 27 55 12 134 26 176 32 77
12 109 24 97 35 -3 3 -105 -12 -226 -35 -121 -22 -225 -40 -231 -40 -7 0 -11
23 -11 60 0 33 -4 60 -10 60 -5 0 -11 -3 -11 -7z" />
        <path d="M488 53 c-29 -34 -33 -46 -9 -31 16 10 25 10 39 2 14 -9 22 -8 37 2
16 12 21 12 37 -3 27 -25 29 -12 3 19 l-24 28 -19 -27 -19 -27 -15 28 c-13 26
-15 26 -30 9z" />
    </g>
</svg>
